<svg xmlns="http://www.w3.org/2000/svg"  viewBox="0 0 100 100" width="100px" height="100px"><path d="M25.5,93C17.505,93,11,86.495,11,78.5v-53C11,17.505,17.505,11,25.5,11h53	C86.495,11,93,17.505,93,25.5v53C93,86.495,86.495,93,78.5,93H25.5z" opacity=".35"/><path fill="#f2f2f2" d="M23.5,91C15.505,91,9,84.495,9,76.5v-53C9,15.505,15.505,9,23.5,9h53C84.495,9,91,15.505,91,23.5v53	C91,84.495,84.495,91,76.5,91H23.5z"/><path fill="#2785bd" d="M76.5,84.5h-53c-4.418,0-8-3.582-8-8v-53c0-4.418,3.582-8,8-8h53c4.418,0,8,3.582,8,8v53	C84.5,80.918,80.918,84.5,76.5,84.5z"/><path fill="#2b59a1" d="M44.5,17L17,49.027c7.929,10.543,27.157,17.93,39.761,6.358c7.333-9.167,3.095-24.178-2.407-29.104	C51.591,23.805,48.284,20.245,44.5,17z"/><path fill="#658bc0" d="M44.5,17L17,45.752v3.274c9.312,7.247,23.843,10.102,34.032,0.744	c7.333-9.167,3.095-24.178-2.407-29.104C47.457,19.622,46.055,18.347,44.5,17z"/><path fill="#d9eeff" d="M16,23.691V40.2c3.189,0.937,6.701,1.121,10.368,0.176c6.826-1.758,12.25-7.182,14.008-14.008	C41.321,22.701,41.137,19.189,40.2,16H23.691C19.444,16,16,19.444,16,23.691z"/><path fill="#9fbce0" d="M44.5,17h-5.775c1.08,5.766,0.455,12.254-3.43,17.11C29.934,39.033,23.373,40.575,17,39.875v5.878	c8.591,3.621,18.911,3.604,26.699-3.544C49.609,34.82,48.227,23.64,44.5,17z"/><path fill="#40396e" d="M29.115,33.262c0,0,12.527,18.933,23.06,25.337c-3.986,1.281-12.639,6.517-27.727-2.735	c3.843,5.267,10.646,15.831,27.3,14.835c5.835-0.284,9.394-2.136,12.668-3.415c3.274-1.28,6.406-1.138,9.11,3.701	c0.57-4.413,0.711-8.541-3.843-13.238c0,0,4.503-17.165-14.668-30.71c3.986,7.971,6.294,12.467,4.42,23.45	c-4.27-2.847-20.04-15.547-23.599-19.675c2.563,4.556,9.935,14.549,12.496,17.112C43.778,44.792,29.115,33.262,29.115,33.262z"/><path fill="none" stroke="#40396e" stroke-miterlimit="10" stroke-width="3" d="M76.5,84.5h-53c-4.418,0-8-3.582-8-8v-53	c0-4.418,3.582-8,8-8h53c4.418,0,8,3.582,8,8v53C84.5,80.918,80.918,84.5,76.5,84.5z"/></svg>