<svg xmlns="http://www.w3.org/2000/svg"  viewBox="0 0 100 100" width="100px" height="100px"><path d="M32.5,93C20.645,93,11,83.355,11,71.5v-39C11,20.645,20.645,11,32.5,11h39C83.355,11,93,20.645,93,32.5v39 C93,83.355,83.355,93,71.5,93H32.5z" opacity=".35"/><path fill="#f2f2f2" d="M30.5,91C18.645,91,9,81.355,9,69.5v-39C9,18.645,18.645,9,30.5,9h39C81.355,9,91,18.645,91,30.5v39 C91,81.355,81.355,91,69.5,91H30.5z"/><path fill="#dd4f2c" d="M69.5,84.5h-39c-8.284,0-15-6.716-15-15v-39c0-8.284,6.716-15,15-15h39c8.284,0,15,6.716,15,15v39 C84.5,77.784,77.784,84.5,69.5,84.5z"/><path fill="#40396e" d="M69.5,86h-39C21.402,86,14,78.598,14,69.5v-39C14,21.402,21.402,14,30.5,14h39 C78.598,14,86,21.402,86,30.5v39C86,78.598,78.598,86,69.5,86z M30.5,17C23.056,17,17,23.056,17,30.5v39 C17,76.944,23.056,83,30.5,83h39C76.944,83,83,76.944,83,69.5v-39C83,23.056,76.944,17,69.5,17H30.5z"/><g><path fill="#f2f2f2" d="M70.88,58.055c-0.002-0.002-0.003-0.004-0.005-0.006c0.079-0.27,0.161-0.538,0.231-0.815 c2.976-11.858-4.288-25.878-16.58-33.259c5.387,7.302,7.768,16.147,5.652,23.882c-0.189,0.69-0.416,1.352-0.666,1.996 c-0.272-0.179-0.615-0.382-1.076-0.636c0,0-12.228-7.55-25.48-20.903c-0.348-0.351,7.067,10.598,15.482,19.488 c-3.964-2.225-15.013-10.264-22.007-16.665c0.859,1.433,1.881,2.813,3.005,4.142c5.841,7.407,13.458,16.547,22.584,23.565 c-6.412,3.924-15.472,4.229-24.493,0.004c-2.231-1.046-4.329-2.307-6.27-3.741c3.819,6.108,9.7,11.378,16.857,14.454 c8.536,3.668,17.024,3.42,23.346,0.06l-0.005,0.007c0.029-0.018,0.066-0.038,0.096-0.057c0.26-0.14,0.517-0.282,0.769-0.432 c3.038-1.577,9.037-3.176,12.258,3.09C75.365,73.763,77.041,65.636,70.88,58.055z"/></g></svg>